#!OML:ASF Y:\EmotionMaleHayes\Project 1\Capture day 1\Session 1\Male1.ASF
:FULLY-SPECIFIED
:DEGREES
566
root 44.0061 17.0538 -0.844623 19.9979 83.3812 36.1099
lowerback 8.63172 2.68939 -7.78915
upperback -0.594308 2.73974 -1.2529
thorax -5.78763 1.58097 2.67693
lowerneck -23.0626 1.36227 3.62317
upperneck 19.7593 0.709855 -0.129375
head 10.1232 0.613405 -0.527971
rclavicle -6.4605e-015 1.23246e-014
rhumerus -54.723 4.54303 -91.741
rradius 42.3449
rwrist -27.5404
rhand -16.5721 -24.1614
rfingers 7.12502
rthumb 9.64821 -53.9205
lclavicle -6.4605e-015 1.23246e-014
lhumerus -58.1516 -22.3144 97.2017
lradius 46.908
lwrist 33.598
lhand -24.8997 -23.2317
lfingers 7.12502
lthumb 1.60839 6.74197
rfemur 13.2153 1.76702 10.6564
rtibia 21.2423
rfoot -200.849 -181.144
rtoes 3.55761
lfemur 19.3163 3.47646 -15.7141
ltibia 16.8089
lfoot -19.4378 11.1194
ltoes -6.20037
567
root 44.0034 17.0509 -0.852884 22.6711 83.4727 38.5557
lowerback 8.68425 2.61762 -7.79297
upperback -0.553045 2.63912 -1.31188
thorax -5.75986 1.52942 2.63104
lowerneck -22.8382 1.4082 3.50176
upperneck 19.274 0.802335 -0.041873
head 9.9097 0.649593 -0.46456
rclavicle 2.71341e-014 1.35174e-014
rhumerus -54.0666 5.00215 -91.7313
rradius 42.1881
rwrist -26.5462
rhand -16.2455 -24.709
rfingers 7.12502
rthumb 9.96329 -54.4532
lclavicle 2.71341e-014 1.35174e-014
lhumerus -57.7952 -23.3861 97.478
lradius 47.2187
lwrist 34.1959
lhand -24.856 -23.0363
lfingers 7.12502
lthumb 1.65061 6.93709
rfemur 13.2011 1.53555 10.2743
rtibia 20.887
rfoot -200.697 -181.065
rtoes 3.89149
lfemur 19.2695 3.39653 -16.0939
ltibia 16.3343
lfoot -19.1088 11.2127
ltoes -7.26734
568
root 43.9968 17.045 -0.854915 23.778 83.475 39.5485
lowerback 8.89467 2.5934 -7.83142
upperback -0.497439 2.5875 -1.26589
thorax -5.81854 1.50617 2.70171
lowerneck -22.9025 1.47489 3.4527
upperneck 19.0699 0.915679 -0.0820451
head 9.85004 0.68928 -0.453907
rclavicle -1.14301e-014 6.75868e-015
rhumerus -53.3978 5.61654 -91.7316
rradius 42.017
rwrist -25.3305
rhand -16.246 -25.0365
rfingers 7.12502
rthumb 9.96284 -54.7808
lclavicle -1.14301e-014 6.75868e-015
lhumerus -57.1909 -24.1097 97.5777
lradius 47.2906
lwrist 33.9182
lhand -24.919 -22.5014
lfingers 7.12502
lthumb 1.58982 7.47239
rfemur 13.1907 1.65644 10.2158
rtibia 20.5964
rfoot -200.626 -181.305
rtoes 3.73231
lfemur 19.3697 3.373 -16.1957
ltibia 15.8318
lfoot -18.6458 11.3749
ltoes -8.82109
569
root 43.9785 17.0415 -0.850581 18.7579 83.6446 34.4049
lowerback 9.25355 2.60781 -7.25089
upperback -0.485577 2.64568 -0.989426
thorax -6.00007 1.5236 2.64699
lowerneck -23.0434 1.47074 3.52284
upperneck 19.0701 0.95991 -0.425057
head 9.87736 0.671671 -0.579458
rclavicle -9.83984e-015 -7.55382e-015
rhumerus -52.763 6.08857 -91.5773
rradius 41.8631
rwrist -24.0241
rhand -16.144 -25.3825
rfingers 7.12502
rthumb 10.0612 -55.122
lclavicle -9.83984e-015 -7.55382e-015
lhumerus -56.4904 -24.5716 97.6205
lradius 47.1616
lwrist 32.9078
lhand -25.3078 -22.4555
lfingers 7.12502
lthumb 1.2143 7.52084
rfemur 13.0457 2.11594 11.2138
rtibia 20.3954
rfoot -200.493 -181.91
rtoes 2.98551
lfemur 19.4667 3.32558 -15.3423
ltibia 15.3641
lfoot -18.2538 11.4626
ltoes -9.62164
570
root 43.9584 17.0433 -0.847971 16.538 83.5727 32.0501
lowerback 9.58807 2.68819 -6.98132
upperback -0.497166 2.75795 -0.863465
thorax -6.20607 1.57686 2.59796
lowerneck -22.5245 1.47142 3.27785
upperneck 18.4978 1.02367 -0.252277
head 9.58095 0.697538 -0.471949
rclavicle 1.23246e-014 -1.55052e-014
rhumerus -52.1976 6.32545 -91.4038
rradius 41.7005
rwrist -22.8282
rhand -15.7199 -25.4821
rfingers 7.12502
rthumb 10.4704 -55.2013
lclavicle 1.23246e-014 -1.55052e-014
lhumerus -55.8101 -25.1018 97.7535
lradius 46.8458
lwrist 31.9061
lhand -26.0459 -22.9169
lfingers 7.12502
lthumb 0.501459 7.06225
rfemur 12.8233 2.61148 11.6865
rtibia 20.2641
rfoot -200.331 -182.141
rtoes 4.03673
lfemur 19.4897 3.307 -15.007
ltibia 14.9607
lfoot -18.0201 11.6915
ltoes -9.88282
571
root 43.9528 17.0519 -0.854709 27.1943 83.1367 42.5208
lowerback 9.66953 2.70415 -8.19774
upperback -0.514801 2.62159 -1.15457
thorax -6.30418 1.55107 2.98618
lowerneck -22.2021 1.58504 3.58903
upperneck 18.1731 1.20378 -0.746993
head 9.41804 0.741023 -0.671004
rclavicle -1.10325e-014 -3.06128e-014
rhumerus -51.7021 6.84872 -91.4498
rradius 41.5092
rwrist -21.9765
rhand -15.1335 -25.2773
rfingers 7.12502
rthumb 11.036 -54.9671
lclavicle -1.10325e-014 -3.06128e-014
lhumerus -55.0851 -25.3524 97.7969
lradius 46.4098
lwrist 31.0665
lhand -26.6467 -23.4819
lfingers 7.12502
lthumb -0.0788365 6.49779
rfemur 12.6917 2.42967 9.92573
rtibia 20.0757
rfoot -200.14 -181.831
rtoes 4.43139
lfemur 19.3381 3.38484 -16.6416
ltibia 14.5602
lfoot -17.8679 11.8824
ltoes -9.92983
